<?xml version="1.0" encoding="utf-8"?>
<!-- Generator: Adobe Illustrator 16.0.0, SVG Export Plug-In . SVG Version: 6.00 Build 0)  -->
<!DOCTYPE svg PUBLIC "-//W3C//DTD SVG 1.1//EN" "http://www.w3.org/Graphics/SVG/1.1/DTD/svg11.dtd">
<svg version="1.1" id="Слой_1" xmlns="http://www.w3.org/2000/svg" xmlns:xlink="http://www.w3.org/1999/xlink" x="0px" y="0px"
	 width="170px" height="110px" viewBox="0 0 250 164.896" enable-background="new 0 0 250 164.896" xml:space="preserve">
<g>
	<g>
		<g>
			<path fill-rule="evenodd" clip-rule="evenodd" fill="#005AA9" d="M124.917,1C98.335,1,76.794,22.543,76.794,49.121
				c0,26.575,21.541,48.118,48.123,48.118c26.574,0,48.117-21.543,48.117-48.118C173.035,22.543,151.492,1,124.917,1z
				 M124.917,94.599c-25.123,0-45.48-20.363-45.48-45.479c0-25.116,20.357-45.48,45.48-45.48c25.117,0,45.479,20.364,45.479,45.48
				C170.396,74.236,150.035,94.599,124.917,94.599z"/>
		</g>
		<g>
			<defs>
				<path id="SVGID_1_" d="M165.566,49.051c0,22.42-18.182,40.606-40.607,40.606c-22.43,0-40.611-18.187-40.611-40.606
					c0-22.432,18.182-40.61,40.611-40.61C147.384,8.441,165.566,26.62,165.566,49.051z"/>
			</defs>
			<clipPath id="SVGID_2_">
				<use xlink:href="#SVGID_1_"  overflow="visible"/>
			</clipPath>
			<path clip-path="url(#SVGID_2_)" fill="#005AA9" d="M124.542,9.818c-0.029,0-0.051,0-0.086,0v0.005c0.035,0,0.059,0,0.086,0
				V9.818z M124.457,47.218l1.855-0.035c14.082-0.583,25.869-10.059,29.975-23.002l0.451-2.144
				c-8.023-7.457-18.707-12.06-30.426-12.219l-1.855,0.005c-12.158,0.324-23.166,5.433-31.201,13.521c0,0,0,0.006-0.006,0.006v2.732
				c0.244-0.264,0.475-0.541,0.73-0.804C98.482,37.928,110.404,47.011,124.457,47.218z M128.89,58.643
				c0.162,0.106,0.324,0.199,0.48,0.313c0.297,0.156,3.352,1.905,3.352,7.763c0,1.202-0.141,2.593-0.459,4.159
				c0.074,0.397,0.115,0.807,0.115,1.228c0,4.366-3.527,7.897-7.846,7.897c-2.586,0-4.871-1.257-6.299-3.193
				c-0.08,4.376,1.975,5.706,2.098,5.769l0.1,0.061l0.064,0.064c1.951,1.808,5.131,1.259,7.07,0.681
				c0.164-0.746,0.838-1.292,1.621-1.252c0.871,0.035,1.551,0.783,1.51,1.66c-0.016,0.153-0.041,0.281-0.078,0.415
				c4.494-2.315,7.586-7,7.586-12.42C138.205,65.708,134.306,60.544,128.89,58.643z M116.367,77.009
				c0-1.081,0.125-2.341,0.416-3.739c-0.064-0.381-0.104-0.772-0.104-1.166c0-4.369,3.523-7.906,7.854-7.906
				c2.588,0,4.883,1.272,6.309,3.222c0.242-5.304-2.232-6.729-2.357-6.806l-0.096-0.049l-0.068-0.064
				c-2.025-1.713-5.188-1.022-7.086-0.355c-0.135,0.756-0.773,1.333-1.561,1.333c-0.875,0-1.596-0.721-1.596-1.604
				c0-0.192,0.037-0.369,0.102-0.541c-4.535,2.282-7.668,7.005-7.668,12.451c0,6.811,4.861,12.468,11.262,13.696
				c-0.84-0.249-1.656-0.653-2.365-1.276C119.22,84.097,116.367,82.396,116.367,77.009z M157.576,72.341
				c-6.975-10.301-17.527-17.728-32.658-18.009c-15.486-0.281-24.939,7.909-32.381,17.168c-0.287-0.339-0.555-0.691-0.844-1.036
				v2.87c8.396,9.182,20.412,14.946,33.742,14.946c12.873,0,24.518-5.37,32.873-14.01v-2.768
				C158.054,71.777,157.82,72.072,157.576,72.341z M124.351,87.546c-8.627,0-15.646-7.064-15.646-15.761
				c0-8.678,7.02-15.753,15.646-15.753s15.645,7.075,15.645,15.753C139.996,80.482,132.978,87.546,124.351,87.546z"/>
		</g>
		<g>
			<g>
				<path fill-rule="evenodd" clip-rule="evenodd" fill="#FFFFFF" d="M124.953,35.047c11.477,0,21.164-8.398,22.961-19.508
					c-0.621-0.337-1.242-0.665-1.879-0.979c-1.369,10.482-10.363,18.499-21.082,18.499c-10.641,0-19.455-7.664-21.027-18.044
					c-0.621,0.313-1.236,0.651-1.848,1.008C104.074,27.009,113.562,35.047,124.953,35.047L124.953,35.047z"/>
				<path fill-rule="evenodd" clip-rule="evenodd" fill="#FFFFFF" d="M126.099,47.339V9.849c-0.223-0.003-0.443-0.014-0.686-0.014
					c-0.43,0-0.871,0.02-1.305,0.026v37.478H126.099L126.099,47.339z"/>
			</g>
			<rect x="124.109" y="33.032" fill-rule="evenodd" clip-rule="evenodd" fill="#0054A5" width="1.998" height="1.998"/>
		</g>
		<g>
			<path fill-rule="evenodd" clip-rule="evenodd" fill="#005AA9" d="M124.917,8.417c-22.48,0-40.703,18.221-40.703,40.706
				c0,22.474,18.223,40.7,40.703,40.7c22.482,0,40.705-18.226,40.705-40.7C165.623,26.638,147.4,8.417,124.917,8.417z
				 M124.917,88.129c-21.545,0-39.006-17.469-39.006-39.007c0-21.549,17.461-39.004,39.006-39.004s39.008,17.455,39.008,39.004
				C163.925,70.661,146.462,88.129,124.917,88.129z"/>
		</g>
	</g>
	<g>
		<path fill="#005AA9" d="M27.677,145.584c-0.281-0.023-0.674-0.044-1.15-0.087c-0.492-0.032-0.836-0.044-1.078-0.044
			c-0.283,0-0.67,0.009-1.18,0.041c-0.516,0.04-0.877,0.061-1.096,0.084c-0.371-1.063-0.799-2.286-1.314-3.682
			c-0.529-1.4-1.039-2.755-1.572-4.057c-0.52-1.297-1.048-2.582-1.594-3.853l-5.392-12.771l-5.503,12.76
			c-2.163,5.406-3.575,9.272-4.269,11.579c-0.226-0.023-0.517-0.045-0.845-0.087c-0.329-0.034-0.573-0.046-0.731-0.046
			c-0.201,0-0.476,0.021-0.82,0.055c-0.339,0.047-0.575,0.063-0.687,0.072l13.405-29.95l1.009,0.002L27.677,145.584L27.677,145.584z
			"/>
		<path fill="#005AA9" d="M35.974,129.037l6.645,0.01c0.514,0,1.236-0.04,2.15-0.103c0.91-0.061,1.469-0.09,1.67-0.102
			c-0.023,0.061-0.033,0.168-0.053,0.323c-0.031,0.154-0.035,0.296-0.057,0.449c-0.008,0.146-0.018,0.252-0.018,0.327
			c0,0.077,0.01,0.191,0.018,0.356c0.02,0.156,0.045,0.315,0.064,0.454c0.01,0.156,0.02,0.285,0.041,0.399
			c-0.418-0.003-1.018-0.055-1.834-0.119c-0.809-0.072-1.471-0.101-1.984-0.104l-6.643-0.006l-0.018,12.517
			c1.754,0.003,4.346-0.044,7.758-0.152c1.318-0.042,2.629-0.163,3.947-0.379c-0.002,0.097-0.025,0.23-0.035,0.394
			c-0.027,0.161-0.043,0.33-0.068,0.496c-0.021,0.159-0.021,0.293-0.021,0.388c0,0.203,0.014,0.411,0.049,0.634
			c0.039,0.218,0.049,0.446,0.074,0.659l-15.471-0.017l0.037-29.19l15.227,0.02c-0.02,0.176-0.043,0.382-0.08,0.629
			c-0.041,0.256-0.059,0.472-0.059,0.661c-0.002,0.183,0.018,0.402,0.057,0.664c0.037,0.266,0.063,0.475,0.08,0.621
			c-1.043-0.211-2.326-0.372-3.867-0.478l-4.299-0.09l-3.295-0.003L35.974,129.037L35.974,129.037z"/>
		<path fill="#005AA9" d="M57.435,118.323c1.736,0.003,4.326,0.061,7.754,0.172c0.941,0.024,2.291,0.158,4.066,0.398
			c-0.01-0.104-0.023-0.245-0.037-0.401c-0.027-0.169-0.043-0.335-0.066-0.499c-0.02-0.162-0.02-0.286-0.02-0.391
			c0-0.195,0.016-0.406,0.045-0.628c0.041-0.225,0.059-0.445,0.082-0.657l-15.59-0.02l-0.039,29.191
			c0.111-0.012,0.303-0.021,0.557-0.043c0.242-0.029,0.5-0.044,0.742-0.062c0.232-0.012,0.438-0.017,0.58-0.017
			c0.129,0,0.324,0.008,0.572,0.025c0.225,0.015,0.465,0.027,0.709,0.058c0.234,0.023,0.441,0.031,0.609,0.042L57.435,118.323
			L57.435,118.323z"/>
		<path fill="#005AA9" d="M78.853,129.09l6.645,0.01c0.521,0,1.234-0.038,2.154-0.104c0.906-0.058,1.465-0.091,1.656-0.102
			c-0.01,0.064-0.021,0.168-0.049,0.323c-0.029,0.153-0.033,0.3-0.045,0.448c-0.025,0.147-0.041,0.254-0.041,0.33
			c0,0.077,0.014,0.192,0.041,0.357c0.01,0.156,0.033,0.315,0.047,0.454c0.023,0.153,0.035,0.284,0.043,0.399
			c-0.412-0.006-1.014-0.055-1.818-0.117c-0.814-0.073-1.469-0.105-1.99-0.105l-6.645-0.009l-0.016,12.52
			c1.746,0.003,4.334-0.046,7.752-0.153c1.324-0.042,2.641-0.165,3.951-0.379c-0.008,0.099-0.018,0.231-0.045,0.394
			c-0.014,0.162-0.045,0.33-0.051,0.495c-0.025,0.162-0.025,0.295-0.025,0.388c0,0.205,0.006,0.412,0.049,0.635
			c0.021,0.219,0.053,0.446,0.068,0.661l-15.459-0.022l0.037-29.188l15.213,0.019c-0.02,0.174-0.043,0.379-0.084,0.631
			c-0.043,0.255-0.059,0.472-0.059,0.663c0,0.179,0.016,0.402,0.057,0.662c0.039,0.264,0.063,0.472,0.082,0.619
			c-1.045-0.208-2.32-0.373-3.863-0.476l-4.299-0.091l-3.293-0.003L78.853,129.09L78.853,129.09z"/>
		<g>
			<path fill="#005AA9" d="M141.246,145.465c-0.281-0.021-0.668-0.045-1.146-0.085c-0.488-0.033-0.834-0.047-1.068-0.047
				c-0.285-0.001-0.674,0.011-1.178,0.042c-0.518,0.044-0.877,0.064-1.102,0.083c-0.361-1.06-0.799-2.285-1.322-3.682
				c-0.518-1.398-1.037-2.753-1.559-4.056c-0.52-1.294-1.064-2.58-1.607-3.852l-10.895-0.015c-2.154,5.409-3.576,9.275-4.26,11.579
				c-0.227-0.02-0.514-0.044-0.842-0.083c-0.338-0.034-0.578-0.046-0.742-0.046c-0.201,0-0.475,0.019-0.811,0.052
				c-0.338,0.048-0.576,0.065-0.691,0.075l13.408-29.948h1.002L141.246,145.465L141.246,145.465z M126.871,121.095l-4.682,10.966
				l9.426,0.011L126.871,121.095L126.871,121.095z"/>
		</g>
		<g>
			<path fill="#005AA9" d="M149.105,145.474c-0.264-0.021-0.6-0.042-1-0.087c-0.4-0.031-0.695-0.043-0.871-0.043
				c-0.23,0-0.557,0.012-0.98,0.043c-0.432,0.041-0.734,0.062-0.916,0.083l0.037-29.318l7.678,0.009c2.793,0.005,5,0.226,6.59,0.672
				c1.592,0.46,2.734,1.198,3.418,2.205c0.695,1.019,1.043,2.399,1.039,4.16c0,1.266-0.193,2.391-0.578,3.365
				c-0.389,0.963-0.975,1.781-1.73,2.469c-0.746,0.69-1.693,1.262-2.834,1.736c-1.154,0.471-2.498,0.858-4.045,1.162
				c-0.643,0.139-1.479,0.203-2.49,0.2c-0.527,0-1.154-0.015-1.916-0.053c-0.768-0.046-1.232-0.073-1.385-0.073L149.105,145.474
				L149.105,145.474z M149.123,130.33c0.826,0.067,1.49,0.101,1.965,0.101c0.424,0,1.184-0.03,2.289-0.095
				c2.127-0.218,3.783-0.935,4.979-2.175c1.193-1.248,1.795-2.829,1.797-4.75c0.002-1.006-0.154-1.913-0.514-2.697
				c-0.342-0.796-0.879-1.441-1.588-1.942c-0.729-0.491-1.641-0.79-2.73-0.894c-0.6-0.056-1.703-0.09-3.309-0.09
				c-1.488-0.003-2.443,0.015-2.871,0.04L149.123,130.33L149.123,130.33z"/>
		</g>
		<path fill="#005AA9" d="M179.785,145.584c-0.234-0.009-0.566-0.038-0.963-0.072c-0.406-0.042-0.709-0.054-0.914-0.054
			c-0.211,0-0.535,0.01-0.959,0.051c-0.443,0.033-0.75,0.063-0.924,0.072l0.033-27.328c-2.943-0.003-6.076,0.165-9.385,0.502
			c0-0.145,0.027-0.369,0.057-0.657c0.043-0.279,0.064-0.496,0.064-0.626c0.002-0.138-0.02-0.345-0.063-0.631
			c-0.031-0.27-0.055-0.486-0.055-0.663l22.107,0.029c-0.006,0.109-0.018,0.234-0.039,0.399c-0.018,0.169-0.053,0.33-0.059,0.494
			c-0.02,0.168-0.029,0.294-0.031,0.398c0,0.094,0.012,0.225,0.031,0.392c-0.002,0.152,0.02,0.321,0.053,0.497
			c0.027,0.176,0.037,0.308,0.041,0.395c-2.898-0.344-5.883-0.521-8.961-0.525L179.785,145.584L179.785,145.584z"/>
		<path fill="#005AA9" d="M193.908,145.531h1.285c0.625-0.797,1.379-1.674,2.24-2.609l18.527-20.469h0.434l-0.029,23.105
			c0.156-0.023,0.379-0.043,0.625-0.084c0.254-0.031,0.447-0.042,0.578-0.042c0.143,0,0.352,0.012,0.627,0.045
			c0.268,0.041,0.453,0.063,0.557,0.083l0.035-29.318l-1.658-0.001L196.73,138.29h-0.43l0.029-22.073
			c-0.186,0.017-0.391,0.04-0.615,0.079c-0.189,0.027-0.396,0.036-0.574,0.036c-0.094,0-0.205-0.009-0.365-0.016
			c-0.139-0.023-0.307-0.038-0.455-0.063c-0.156-0.023-0.279-0.034-0.375-0.04L193.908,145.531L193.908,145.531z"/>
		<path fill="#005AA9" d="M249.171,143.663c-2.434,1.624-5.598,2.439-9.484,2.434c-2.326-0.003-4.428-0.373-6.283-1.073
			c-1.869-0.712-3.455-1.745-4.791-3.091c-1.301-1.348-2.299-2.961-2.98-4.866c-0.676-1.906-1.025-4.016-1.021-6.331
			c0.006-3.119,0.721-5.819,2.135-8.105c1.412-2.295,3.359-4.046,5.828-5.232c2.473-1.195,5.211-1.78,8.221-1.775
			c3.109,0.004,6.178,0.661,9.205,1.98c-0.334,0.854-0.629,1.959-0.895,3.296l-0.297,0.05c-0.27-0.359-0.795-0.834-1.564-1.418
			c-0.771-0.592-1.754-1.114-2.916-1.583c-1.166-0.472-2.4-0.692-3.713-0.695c-1.91-0.001-3.605,0.351-5.094,1.06
			c-1.482,0.712-2.725,1.697-3.717,2.958c-0.979,1.26-1.734,2.712-2.23,4.367c-0.51,1.644-0.762,3.403-0.762,5.26
			c-0.004,2.684,0.484,5.057,1.445,7.111c0.953,2.053,2.309,3.627,4.064,4.744c1.748,1.105,3.734,1.661,5.969,1.664
			c1.979,0.002,3.762-0.386,5.367-1.161c1.592-0.772,2.842-1.545,3.729-2.296L249.171,143.663L249.171,143.663z"/>
	</g>
	<g>
		<path fill="#005AA9" d="M4.144,161.935c-1.305,0-2.322-0.486-3.052-1.452c-0.729-0.97-1.093-2.168-1.092-3.599
			c0.002-1.513,0.415-2.723,1.238-3.625c0.822-0.903,1.845-1.354,3.068-1.352c1.311,0.001,2.344,0.478,3.098,1.43
			c0.755,0.952,1.131,2.142,1.129,3.565c-0.001,1.481-0.411,2.691-1.227,3.629S5.435,161.938,4.144,161.935z M4.258,160.714
			c0.752,0,1.383-0.31,1.891-0.931c0.509-0.621,0.765-1.585,0.766-2.896c0.002-1.316-0.264-2.273-0.796-2.866
			c-0.532-0.594-1.155-0.89-1.87-0.892c-0.734-0.001-1.356,0.298-1.865,0.896c-0.508,0.6-0.763,1.549-0.765,2.845
			c-0.001,1.375,0.251,2.359,0.758,2.952C2.884,160.417,3.511,160.712,4.258,160.714z"/>
		<path fill="#005AA9" d="M14.446,164.893l0.003-3.207c-1.38-0.104-2.494-0.599-3.342-1.487c-0.85-0.889-1.273-1.994-1.271-3.316
			c0.002-1.367,0.44-2.469,1.313-3.302c0.873-0.834,1.977-1.3,3.313-1.396l0.004-3.087l1.279,0.003l-0.004,3.085
			c1.342,0.102,2.446,0.572,3.315,1.411c0.867,0.838,1.301,1.938,1.299,3.298c-0.002,1.325-0.427,2.428-1.273,3.316
			c-0.85,0.886-1.966,1.378-3.353,1.476l-0.004,3.21L14.446,164.893z M14.46,153.293c-2.002,0.342-3.003,1.566-3.006,3.67
			c-0.002,2.066,0.996,3.265,2.997,3.595L14.46,153.293z M15.73,160.558c2.001-0.33,3.003-1.534,3.005-3.613
			c0.003-2.097-0.996-3.315-2.996-3.649L15.73,160.558z"/>
		<path fill="#005AA9" d="M23.542,161.697l0.01-8.345l-2.635-0.003l0.002-1.158l6.773,0.009l-0.002,1.158l-2.662-0.003l-0.01,8.343
			L23.542,161.697z"/>
		<path fill="#005AA9" d="M36.052,161.712l-1.459-0.003c-0.055-0.301-0.111-0.871-0.166-1.712c-0.654,1.317-1.766,1.974-3.334,1.973
			c-1.066-0.003-1.885-0.287-2.453-0.851c-0.57-0.567-0.855-1.246-0.855-2.038c0.002-0.961,0.41-1.751,1.227-2.367
			c0.816-0.617,2.203-0.926,4.16-0.923c0.262,0,0.684,0.013,1.26,0.039c0.002-0.753-0.057-1.297-0.172-1.632
			c-0.115-0.338-0.361-0.604-0.738-0.807c-0.375-0.199-0.871-0.301-1.484-0.302c-1.5-0.002-2.373,0.568-2.617,1.708l-1.365-0.237
			c0.334-1.747,1.734-2.621,4.199-2.618c1.311,0.001,2.24,0.292,2.789,0.873c0.547,0.581,0.82,1.586,0.818,3.016l-0.004,4.036
			C35.855,160.539,35.921,161.154,36.052,161.712z M34.431,156.959c-0.604-0.039-1.063-0.059-1.375-0.059
			c-1.166-0.001-2.072,0.19-2.719,0.572s-0.971,0.941-0.971,1.677c-0.002,0.466,0.172,0.861,0.52,1.189s0.852,0.492,1.51,0.493
			c0.891,0,1.623-0.324,2.197-0.97c0.574-0.647,0.863-1.406,0.865-2.28C34.458,157.407,34.449,157.198,34.431,156.959z"/>
		<path fill="#005AA9" d="M37.353,161.714l3.15-9.498l1.779,0.001l3.059,9.507l-1.533-0.003l-2.375-7.707l-0.293-0.001l-2.41,7.702
			L37.353,161.714z"/>
		<path fill="#005AA9" d="M46.65,161.726l0.012-9.503l1.477,0.003l-0.004,3.658l2.822,0.004c0.984,0.002,1.725,0.295,2.215,0.883
			c0.492,0.586,0.736,1.318,0.736,2.198c-0.002,0.865-0.27,1.542-0.803,2.031c-0.533,0.487-1.252,0.732-2.154,0.729L46.65,161.726z
			 M48.128,160.57l2.494,0.004c1.109,0.002,1.666-0.546,1.666-1.637c0.002-1.259-0.553-1.89-1.662-1.893l-2.492-0.003L48.128,160.57
			z"/>
		<path fill="#005AA9" d="M55.49,161.736l0.012-9.501l2.406,0.003l2.82,8.198l2.982-8.191l2.262,0.003l-0.012,9.503l-1.42-0.003
			l0.01-8.205h-0.121l-2.988,8.202l-1.602-0.003l-2.928-8.339h-0.123l-0.01,8.336L55.49,161.736z"/>
		<path fill="#005AA9" d="M71.908,162.019c-1.305,0-2.32-0.486-3.051-1.452c-0.73-0.969-1.094-2.168-1.092-3.599
			c0.002-1.513,0.414-2.723,1.238-3.625c0.82-0.903,1.844-1.354,3.068-1.352c1.311,0.003,2.342,0.478,3.096,1.43
			c0.756,0.952,1.133,2.142,1.131,3.566c-0.002,1.482-0.41,2.69-1.229,3.628C74.255,161.553,73.201,162.022,71.908,162.019z
			 M72.023,160.798c0.752,0,1.383-0.31,1.891-0.93c0.51-0.622,0.766-1.586,0.766-2.896c0.004-1.316-0.264-2.273-0.795-2.866
			c-0.533-0.592-1.156-0.891-1.871-0.892c-0.734-0.002-1.355,0.298-1.865,0.896c-0.508,0.6-0.762,1.549-0.766,2.845
			c0,1.375,0.252,2.358,0.76,2.952C70.648,160.5,71.277,160.796,72.023,160.798z"/>
		<path fill="#005AA9" d="M77.058,161.763l3.15-9.498l1.779,0.001l3.059,9.507l-1.533-0.003l-2.375-7.706l-0.293-0.002l-2.41,7.703
			L77.058,161.763z"/>
		<path fill="#005AA9" d="M89.828,162.042c-1.305-0.002-2.322-0.486-3.053-1.453c-0.729-0.969-1.092-2.167-1.092-3.6
			c0.002-1.513,0.416-2.721,1.238-3.623c0.822-0.903,1.846-1.354,3.068-1.352c1.311,0,2.344,0.478,3.098,1.43
			c0.756,0.952,1.131,2.14,1.129,3.565c-0.002,1.481-0.41,2.691-1.227,3.629S91.119,162.043,89.828,162.042z M89.941,160.82
			c0.754,0.001,1.383-0.309,1.893-0.931c0.508-0.619,0.764-1.584,0.766-2.896c0.002-1.316-0.264-2.273-0.797-2.866
			c-0.531-0.594-1.156-0.89-1.869-0.892c-0.734,0-1.357,0.298-1.865,0.897c-0.51,0.599-0.764,1.545-0.766,2.845
			c-0.002,1.373,0.252,2.357,0.758,2.95C88.568,160.522,89.195,160.818,89.941,160.82z"/>
		<path fill="#005AA9" d="M96.152,161.788l0.012-9.502l5.514,0.007l-0.002,1.156l-4.035-0.004l-0.01,8.343H96.152z"/>
		<path fill="#005AA9" d="M104.642,160.894l-0.002,0.902h-1.477l0.012-9.502l1.477,0.001l-0.006,4.986
			c0,0.694-0.023,1.421-0.068,2.178c0.402-0.646,0.811-1.24,1.227-1.778l3.326-4.355v-1.024l1.477,0.001l-0.012,9.503l-1.477-0.003
			l0.006-4.772c0.002-0.88,0.025-1.605,0.07-2.175c-0.207,0.378-0.619,0.966-1.234,1.762L104.642,160.894z"/>
		<path fill="#005AA9" d="M118.179,161.814l0.006-4.084c-0.754,0.634-1.623,0.949-2.607,0.948c-0.764-0.002-1.439-0.192-2.025-0.577
			c-0.588-0.382-0.879-1.019-0.879-1.91l0.006-3.886l1.477,0.002l-0.004,3.544c-0.002,1.067,0.598,1.603,1.795,1.604
			c0.896,0,1.643-0.214,2.24-0.646l0.004-4.496l1.479,0.001l-0.012,9.503L118.179,161.814z"/>
		<path fill="#005AA9" d="M128.785,158.995l1.373,0.284c-0.25,0.813-0.742,1.484-1.469,2.014c-0.73,0.531-1.586,0.796-2.57,0.795
			c-1.297-0.002-2.348-0.459-3.148-1.373c-0.803-0.915-1.203-2.113-1.201-3.595c0.002-1.514,0.422-2.734,1.256-3.667
			c0.836-0.932,1.883-1.395,3.145-1.395c1.242,0.003,2.24,0.433,2.994,1.294c0.754,0.859,1.141,2.146,1.156,3.857l-6.904-0.009
			c-0.002,1.437,0.299,2.406,0.9,2.908c0.6,0.504,1.236,0.756,1.908,0.756C127.435,160.866,128.289,160.243,128.785,158.995z
			 M128.705,156.107c-0.014-0.532-0.1-1.007-0.262-1.421s-0.438-0.767-0.828-1.06c-0.389-0.292-0.854-0.438-1.4-0.439
			c-0.732,0-1.355,0.263-1.867,0.788s-0.801,1.234-0.863,2.126L128.705,156.107z"/>
		<path fill="#005AA9" d="M137.597,158.509l1.336,0.235c-0.189,1.051-0.607,1.871-1.254,2.466c-0.646,0.594-1.453,0.89-2.418,0.889
			c-1.311-0.002-2.311-0.486-2.996-1.454c-0.686-0.969-1.027-2.147-1.027-3.543c0.004-1.443,0.367-2.644,1.092-3.6
			c0.727-0.957,1.713-1.433,2.961-1.433c1.035,0.001,1.863,0.313,2.488,0.929c0.621,0.619,1.01,1.418,1.158,2.396l-1.336,0.253
			c-0.25-1.568-1.004-2.354-2.27-2.354c-0.814-0.003-1.439,0.345-1.879,1.036c-0.439,0.693-0.66,1.592-0.66,2.694
			c-0.004,1.217,0.213,2.164,0.648,2.839c0.434,0.675,1.045,1.012,1.834,1.014C136.496,160.877,137.269,160.087,137.597,158.509z"/>
		<path fill="#005AA9" d="M145.24,155.684l3.34,6.167l-1.67-0.001l-2.754-5.203l-1.943,2.262l-0.004,2.936l-1.479-0.001l0.012-9.503
			l1.479,0.001l-0.006,3.592c0,0.678-0.023,1.189-0.066,1.54c0.322-0.477,0.635-0.877,0.936-1.206l3.514-3.92l1.617,0.003
			L145.24,155.684z"/>
		<path fill="#005AA9" d="M150.99,160.952l-0.002,0.902l-1.477-0.001l0.012-9.503l1.477,0.003l-0.006,4.986
			c-0.002,0.695-0.023,1.421-0.068,2.178c0.402-0.646,0.811-1.239,1.227-1.778l3.326-4.355v-1.024l1.477,0.002l-0.012,9.502
			l-1.477-0.003l0.006-4.771c0.002-0.882,0.023-1.606,0.07-2.177c-0.209,0.379-0.619,0.967-1.234,1.763L150.99,160.952z"/>
		<path fill="#005AA9" d="M161.033,160.964l-0.002,0.903l-1.479-0.002l0.012-9.502l1.479,0.001l-0.006,4.986
			c-0.002,0.694-0.025,1.421-0.068,2.18c0.402-0.648,0.811-1.242,1.225-1.78l3.328-4.354v-1.026l1.475,0.003l-0.012,9.501
			l-1.475-0.001l0.006-4.772c0-0.881,0.023-1.606,0.068-2.175c-0.207,0.376-0.619,0.965-1.234,1.76L161.033,160.964z
			 M160.427,148.46h1.07c0.156,0.854,0.725,1.282,1.701,1.282c1.023,0.002,1.617-0.425,1.781-1.276h1.072
			c-0.271,1.606-1.17,2.408-2.693,2.405C161.634,150.871,160.656,150.067,160.427,148.46z"/>
		<path fill="#005AA9" d="M178.208,155.725l3.34,6.167l-1.67-0.002l-2.754-5.203l-1.943,2.262l-0.004,2.936l-1.479-0.001
			l0.012-9.501h1.479l-0.006,3.592c0,0.677-0.023,1.189-0.066,1.541c0.322-0.477,0.635-0.879,0.936-1.206l3.514-3.921l1.617,0.003
			L178.208,155.725z"/>
		<path fill="#005AA9" d="M186.607,162.163c-1.307-0.001-2.322-0.486-3.053-1.454c-0.729-0.968-1.092-2.168-1.092-3.598
			c0.002-1.514,0.414-2.723,1.238-3.625c0.822-0.904,1.846-1.353,3.068-1.353c1.311,0.003,2.344,0.479,3.098,1.43
			c0.754,0.954,1.131,2.142,1.129,3.567c-0.002,1.481-0.41,2.691-1.227,3.627C188.953,161.697,187.896,162.164,186.607,162.163z
			 M186.72,160.94c0.752,0,1.383-0.31,1.891-0.929c0.51-0.621,0.766-1.586,0.768-2.897c0.002-1.316-0.264-2.271-0.797-2.865
			c-0.531-0.593-1.156-0.891-1.871-0.891c-0.732-0.002-1.355,0.298-1.863,0.896c-0.51,0.598-0.764,1.547-0.766,2.843
			c-0.002,1.375,0.25,2.359,0.758,2.952C185.347,160.642,185.974,160.94,186.72,160.94z"/>
		<path fill="#005AA9" d="M192.933,161.907l0.012-9.501l2.406,0.003l2.82,8.198l2.982-8.191l2.26,0.002l-0.01,9.502l-1.42-0.001
			l0.01-8.205h-0.121l-2.988,8.202l-1.602-0.003l-2.93-8.34h-0.121l-0.01,8.337L192.933,161.907z"/>
		<path fill="#005AA9" d="M206.013,161.923l0.012-9.502l7.15,0.009l-0.012,9.502l-1.475-0.003l0.008-8.343l-4.195-0.006l-0.01,8.343
			H206.013z"/>
		<path fill="#005AA9" d="M214.609,161.934l3.148-9.498l1.779,0.001l3.059,9.507l-1.533-0.003l-2.375-7.706l-0.293-0.002
			l-2.41,7.702L214.609,161.934z"/>
		<path fill="#005AA9" d="M230.384,159.123l1.373,0.283c-0.254,0.811-0.742,1.482-1.471,2.015c-0.729,0.529-1.584,0.794-2.568,0.793
			c-1.299-0.002-2.35-0.46-3.152-1.375c-0.801-0.914-1.199-2.111-1.199-3.593c0.002-1.512,0.422-2.736,1.256-3.667
			c0.836-0.93,1.883-1.396,3.145-1.394c1.242,0,2.24,0.432,2.996,1.291c0.754,0.862,1.141,2.147,1.156,3.859l-6.906-0.008
			c0,1.436,0.299,2.405,0.898,2.907c0.604,0.502,1.24,0.754,1.91,0.756C229.033,160.992,229.886,160.37,230.384,159.123z
			 M230.302,156.234c-0.012-0.533-0.098-1.007-0.262-1.422c-0.164-0.414-0.438-0.768-0.826-1.058c-0.387-0.294-0.855-0.44-1.4-0.44
			c-0.734-0.001-1.357,0.261-1.869,0.787c-0.514,0.527-0.801,1.236-0.863,2.126L230.302,156.234z"/>
		<path fill="#005AA9" d="M238.365,155.798l3.34,6.169l-1.67-0.003l-2.754-5.202l-1.943,2.262l-0.006,2.935h-1.475l0.012-9.502
			l1.475,0.001l-0.002,3.59c-0.002,0.678-0.023,1.191-0.068,1.541c0.322-0.476,0.635-0.878,0.936-1.205l3.514-3.92l1.619,0.001
			L238.365,155.798z"/>
		<path fill="#005AA9" d="M248.437,158.645l1.336,0.237c-0.189,1.051-0.607,1.872-1.254,2.466c-0.646,0.593-1.453,0.889-2.418,0.889
			c-1.311-0.003-2.309-0.486-2.996-1.453c-0.686-0.97-1.027-2.15-1.027-3.542c0.004-1.444,0.369-2.646,1.092-3.602
			c0.727-0.957,1.713-1.435,2.963-1.432c1.033,0,1.861,0.31,2.486,0.929c0.623,0.618,1.01,1.417,1.158,2.396l-1.334,0.252
			c-0.25-1.568-1.006-2.353-2.271-2.355c-0.814,0-1.439,0.344-1.879,1.039c-0.439,0.691-0.66,1.589-0.66,2.692
			c-0.002,1.217,0.215,2.163,0.648,2.838c0.434,0.674,1.047,1.013,1.834,1.014C247.337,161.015,248.109,160.225,248.437,158.645z"/>
	</g>
</g>
</svg>
